<svg width="140" height="29" viewBox="0 0 140 29" fill="none" xmlns="http://www.w3.org/2000/svg">
<path d="M104.606 9.30825C103.369 7.89026 102.197 6.54604 100.988 5.16084C102.758 2.31258 107.593 1.1077 111.362 2.73469C115.901 4.69365 118.207 9.35333 117.023 14.1646C115.766 19.2669 111.444 21.7505 104.409 21.0988C104.409 22.7176 104.409 24.3119 104.409 25.9061C104.413 28.9633 104.409 28.8404 101.41 28.992C99.6447 29.0822 99.3169 28.4101 99.3825 26.8405C99.4972 24.0537 99.4767 21.2587 99.3907 18.4719C99.3661 17.726 99.0793 16.8121 98.5836 16.2916C95.7691 13.3245 92.9054 10.4066 89.9638 7.5665C87.346 5.042 83.454 5.46821 81.2294 8.38615C79.2629 10.968 79.9471 14.8491 82.7043 16.7752C84.9288 18.3243 87.7761 17.9965 90.013 15.9269C92.0737 14.0212 92.0532 14.0417 94.032 16.0252C96.5884 18.5907 96.486 17.8367 93.8599 20.3858C90.0908 24.0414 84.937 24.693 80.4428 22.3201C75.8871 19.9145 73.6462 15.2753 74.3836 9.77135C74.9571 5.4887 78.9311 1.20606 83.4499 0.279858C87.8253 -0.621752 91.5944 0.673287 94.7285 3.90269C98.0715 7.3452 101.464 10.7467 104.839 14.1565C105.909 15.2384 107.142 15.7712 108.682 15.2958C110.042 14.8777 110.94 14.0212 111.28 12.6196C111.669 11.0213 111.231 9.61971 109.932 8.68122C108.658 7.76322 107.216 7.59109 105.806 8.53368C105.491 8.74269 105.171 8.94351 104.606 9.30825Z" fill="#0ABBB5"/>
<path d="M15.6449 18.9585C12.2275 18.9585 8.81494 18.9585 5.20823 18.9585C5.20823 20.4835 5.21794 21.9224 5.20823 23.3565C5.19367 25.2352 4.17428 26.3873 2.57723 26.3634C0.975329 26.3347 0.0287515 25.2974 0.0238973 23.4712C0.00448029 19.2692 -0.0246452 15.0673 0.03846 10.8653C0.135545 5.08096 4.55776 0.898093 10.4994 0.878971C16.4021 0.85985 20.9214 5.06184 21.0379 10.8031C21.1253 15.0529 21.0816 19.3123 21.0671 23.5621C21.0573 25.3021 20.0914 26.3347 18.5768 26.3538C16.9798 26.373 15.8973 25.2782 15.8682 23.5716C15.839 22.1184 15.8439 20.6699 15.8342 19.2167C15.8293 19.1736 15.7759 19.1354 15.6449 18.9585ZM15.7953 13.8722C15.9604 11.1186 16.2225 8.39857 13.6012 6.6346C11.6401 5.3152 9.45084 5.37735 7.48973 6.64894C4.81018 8.38901 5.18882 11.1473 5.26648 13.9678C8.35378 13.9678 11.344 13.9725 14.3342 13.963C14.7954 13.9678 15.2565 13.9104 15.7953 13.8722Z" fill="white"/>
<path d="M130.475 0.91042C132.908 0.705061 135.086 1.51217 136.998 3.07386C138.336 4.16752 138.663 5.95366 137.767 7.03777C136.747 8.2747 135.29 8.36067 133.848 7.10463C132.387 5.83427 130.745 5.55727 128.942 5.89635C127.894 6.09216 127.163 6.68914 127.025 7.83533C126.883 9.01973 127.339 9.90803 128.468 10.2758C130.323 10.8823 132.216 11.3742 134.08 11.9473C138.929 13.4469 139.679 15.8826 139.726 18.7146C139.788 22.2105 137.197 25.2097 133.487 26.0216C129.17 26.9624 125.303 26.0072 122.238 22.6069C121.142 21.389 120.976 20.0232 121.755 18.9343C122.888 17.3487 124.701 17.4347 126.162 19.2208C127.827 21.2553 129.92 21.8236 132.382 21.1694C133.544 20.8637 134.526 20.2715 134.498 18.8674C134.474 17.4586 133.316 17.2102 132.282 16.8759C130.09 16.1691 127.785 15.6963 125.721 14.7125C122.566 13.2129 121.285 10.0895 122.025 6.66048C122.708 3.48458 125.54 1.09668 128.871 0.91042C129.388 0.886541 129.901 0.91042 130.475 0.91042Z" fill="white"/>
<path d="M24.6211 17.1539C24.6211 15.081 24.5825 13.0081 24.6308 10.9353C24.7418 5.83432 28.8601 1.27784 33.6399 0.924398C39.9211 0.456332 44.7057 3.62294 45.343 9.37347C45.8789 14.2404 45.6568 19.1933 45.623 24.108C45.6133 25.6794 44.3967 26.4674 42.8179 26.3528C41.3647 26.2477 40.4232 25.2447 40.4087 23.6113C40.3749 19.3605 40.4087 15.1097 40.3749 10.8636C40.3604 8.77167 39.4624 7.10001 37.4878 6.2594C35.4745 5.39491 33.4709 5.60028 31.7135 6.99971C30.1299 8.26062 29.8402 10.0612 29.8112 11.9048C29.7678 15.1192 29.7871 18.3336 29.7823 21.5432C29.7823 22.3217 29.7871 23.1002 29.7533 23.874C29.6712 25.5934 28.8553 26.3862 27.2331 26.3576C25.6495 26.3289 24.6308 25.3116 24.6163 23.6877C24.597 21.5098 24.6115 19.3318 24.6115 17.1586C24.6115 17.1539 24.6163 17.1539 24.6211 17.1539Z" fill="white"/>
<path d="M70.3029 6.20221C70.1447 7.68832 70.1447 9.21744 69.7993 10.6605C68.9696 14.1011 66.8544 16.5811 63.5355 17.8952C62.5714 18.2774 62.2884 18.7314 62.3508 19.7062C62.4371 21.049 62.3796 22.4013 62.3556 23.7488C62.3268 25.4117 61.4587 26.3244 59.9191 26.3626C58.3267 26.4009 57.2092 25.45 57.1421 23.8587C57.0797 22.3583 57.214 20.8483 57.1181 19.3526C57.0893 18.8939 56.6816 18.2344 56.2787 18.0624C51.6456 16.0889 49.2187 12.5241 49.2187 7.53541C49.2187 6.18788 49.1947 4.84035 49.2379 3.49281C49.2954 1.77734 50.2067 0.888538 51.8422 0.878981C53.449 0.869424 54.4274 1.77734 54.4849 3.46414C54.5377 5.01715 54.437 6.57494 54.4802 8.12794C54.5665 11.4538 56.5425 13.4129 59.732 13.4034C62.9935 13.3891 64.8208 11.5302 64.9024 8.09449C64.9359 6.64183 64.8832 5.18918 64.9168 3.74129C64.9599 1.81079 65.8856 0.855089 67.617 0.88376C69.3053 0.91243 70.1303 1.81556 70.1686 3.70784C70.1878 4.5393 70.1734 5.36598 70.1734 6.19743C70.2118 6.19266 70.255 6.19744 70.3029 6.20221Z" fill="white"/>
</svg>
